<svg width="128" height="128" viewBox="0 0 128 128" fill="none" xmlns="http://www.w3.org/2000/svg">
<path d="M35.578 34.7155V34.705L22.828 27.373L10.1035 34.747L10.119 49.452L22.826 56.7896V42.1255L35.578 34.7155Z" fill="#FFD552"/>
<path d="M35.578 34.7153L22.826 42.1253V56.7893L35.599 49.4153L35.578 34.7153Z" fill="#F68F6F"/>
<path d="M38.955 32.7503L22.8245 23.4673L6.7195 32.7978L6.744 51.4093L22.8255 60.6923L38.9795 51.3628L38.955 32.7503ZM22.827 25.2693L36.643 33.2198L22.826 41.2238L9.056 33.2468L22.827 25.2693ZM8.2815 34.6008L22.046 42.5748V58.4408L8.3035 50.5083L8.2815 34.6008ZM23.606 58.4403V42.5748L37.3975 34.5853L37.419 50.4633L23.606 58.4403ZM64.904 43.7663H63.344V42.2063H64.904V43.7663ZM64.904 40.6463H63.344V39.0863H64.904V40.6463ZM23.6535 67.0338H22.0935V65.4738H23.6535V67.0338ZM23.6535 63.9138H22.0935V62.3538H23.6535V63.9138ZM105.954 67.0338H104.394V65.4738H105.954V67.0338ZM105.954 63.9138H104.394V62.3538H105.954V63.9138ZM40.298 33.1343L39.5365 31.7728L40.898 31.0113L41.6595 32.3728L40.298 33.1343ZM43.021 31.6113L42.2595 30.2498L43.621 29.4883L44.3825 30.8498L43.021 31.6113ZM45.7435 30.0883L44.9825 28.7268L46.344 27.9653L47.105 29.3268L45.7435 30.0883ZM46.7955 100.786L45.434 100.024L46.1955 98.6628L47.557 99.4243L46.7955 100.786ZM44.0725 99.2628L42.711 98.5013L43.4725 97.1398L44.834 97.9013L44.0725 99.2628ZM41.3495 97.7398L39.988 96.9783L40.7495 95.6168L42.111 96.3783L41.3495 97.7398ZM81.4735 100.786L80.712 99.4243L82.0735 98.6628L82.835 100.024L81.4735 100.786ZM84.196 99.2628L83.4345 97.9013L84.796 97.1398L85.5575 98.5013L84.196 99.2628ZM86.9195 97.7398L86.158 96.3783L87.5195 95.6168L88.281 96.9783L86.9195 97.7398ZM87.997 33.1343L86.6355 32.3728L87.397 31.0113L88.7585 31.7728L87.997 33.1343ZM85.274 31.6113L83.9125 30.8498L84.674 29.4883L86.0355 30.2498L85.274 31.6113ZM82.551 30.0883L81.1895 29.3268L81.951 27.9653L83.3125 28.7268L82.551 30.0883ZM64.904 89.3328H63.344V87.7728H64.904V89.3328ZM64.904 86.2128H63.344V84.6528H64.904V86.2128Z" fill="#4A555F"/>
<path d="M51.42 25.9858L51.4 11.2763L64.129 3.90283L76.876 11.2383L76.8955 25.9478L64.1675 33.3218L51.42 25.9858Z" fill="#FFD552"/>
<path d="M76.922 11.248L64.172 18.658L64.1675 33.322L76.8955 25.948L76.922 11.248Z" fill="#F68F6F"/>
<path d="M80.2535 9.282L64.1225 0L48.0175 9.33L48.0425 27.9425L64.1735 37.2245L80.278 27.8945L80.2535 9.282ZM64.1255 1.801L77.952 9.7455L64.124 17.756L50.354 9.7785L64.1255 1.801ZM49.58 11.1335L63.392 19.135V34.9755L49.6015 27.0395L49.58 11.1335ZM78.717 26.9965L64.952 34.971V19.0795L78.717 11.105V26.9965Z" fill="#4A555F"/>
<path d="M51.29 26.9868L50.5285 25.6253L51.89 24.8638L52.6515 26.2253L51.29 26.9868ZM54.0135 25.4638L53.252 24.1023L54.6135 23.3408L55.375 24.7023L54.0135 25.4638ZM77.005 26.9868L75.6435 26.2253L76.405 24.8638L77.7665 25.6253L77.005 26.9868ZM74.2825 25.4638L72.9205 24.7023L73.682 23.3408L75.044 24.1023L74.2825 25.4638Z" fill="#4A555F"/>
<path d="M51.42 71.374L51.4 56.664L64.129 49.2905L76.876 56.626L76.8955 71.3355L64.1675 78.7095L51.42 71.374Z" fill="#71CDE1"/>
<path d="M76.922 56.6357L64.172 64.0457L64.1675 78.7097L76.8955 71.3362L76.922 56.6357Z" fill="#F68F6F"/>
<path d="M64.1225 45.3877L48.0175 54.7182V73.3302L64.1735 82.6127L80.278 73.2822V54.6702L64.1225 45.3877ZM64.1255 47.1892L77.9415 55.1397L64.124 63.1442L50.354 55.1672L64.1255 47.1892ZM49.58 56.7252L63.392 64.5332V80.3632L49.6015 72.4272L49.58 56.7252ZM64.952 80.3582V64.4677L78.696 56.5057L78.717 72.3842L64.952 80.3582Z" fill="#4A555F"/>
<path d="M64.904 56.3049H63.344V54.7449H64.904V56.3049ZM64.904 53.1849H63.344V51.6249H64.904V53.1849ZM64.904 50.0649H63.344V48.5049H64.904V50.0649Z" fill="#4A555F"/>
<path d="M51.42 116.762L51.4 102.052L64.129 94.6787L76.876 102.014L76.8955 116.724L64.1675 124.097L51.42 116.762Z" fill="#FFD552"/>
<path d="M76.922 102.023L64.172 109.433L64.1675 124.097L76.8955 116.723L76.922 102.023Z" fill="#F68F6F"/>
<path d="M80.2535 100.057L64.1225 90.7749L48.0175 100.105L48.0425 118.717L64.1735 128L80.278 118.67L80.2535 100.057ZM64.1255 92.5764L77.9415 100.527L64.124 108.532L50.354 100.554L64.1255 92.5764ZM49.58 101.909L63.392 109.91V125.751L49.6015 117.815L49.58 101.909ZM64.952 125.746V109.855L78.696 101.893L78.717 117.772L64.952 125.746Z" fill="#4A555F"/>
<path d="M64.904 101.871H63.344V100.311H64.904V101.871ZM64.904 98.7513H63.344V97.1913H64.904V98.7513ZM64.904 95.6313H63.344V94.0713H64.904V95.6313Z" fill="#4A555F"/>
<path d="M92.4225 49.4541L92.4025 34.7446L105.131 27.3706L117.898 34.7066V49.4161L105.126 56.7896L92.4225 49.4541Z" fill="#FFD552"/>
<path d="M117.898 34.7153L105.126 42.1253V56.7893L117.898 49.4153V34.7153Z" fill="#F68F6F"/>
<path d="M121.256 32.7503L105.125 23.4673L89.02 32.7978L89.045 51.4093L105.126 60.6923L121.28 51.3628L121.256 32.7503ZM105.128 25.2693L118.944 33.2198L105.127 41.2238L91.357 33.2468L105.128 25.2693ZM90.5825 34.6008L104.347 42.5748V58.4408L90.6045 50.5083L90.5825 34.6008ZM105.906 58.4403V42.5748L119.698 34.5853L119.719 50.4633L105.906 58.4403Z" fill="#4A555F"/>
<path d="M92.4225 94.2158L92.4025 79.5063L105.131 72.1323L117.898 79.4678V94.1773L105.142 101.551L92.4225 94.2158Z" fill="#FFD552"/>
<path d="M117.898 79.4971L105.142 86.9066V101.571L117.898 94.1971V79.4971Z" fill="#F68F6F"/>
<path d="M121.255 77.512L105.125 68.2295L89.02 77.56L89.045 96.172L105.175 105.454L121.28 96.124L121.255 77.512ZM105.128 70.031L118.944 77.9815L105.142 85.9855L91.3575 78.008L105.128 70.031ZM90.5825 79.3625L104.363 87.338L104.392 103.203L90.6045 95.269L90.5825 79.3625ZM105.951 103.201L105.923 87.3365L119.697 79.348L119.719 95.2255L105.951 103.201Z" fill="#4A555F"/>
<path d="M105.954 79.5725H104.394V78.0125H105.954V79.5725ZM105.954 76.4525H104.394V74.8925H105.954V76.4525ZM105.954 73.3325H104.394V71.7725H105.954V73.3325ZM92.465 94.638L91.7035 93.2765L93.065 92.515L93.8265 93.8765L92.465 94.638ZM95.188 93.1155L94.4265 91.754L95.7885 90.9925L96.55 92.354L95.188 93.1155Z" fill="#4A555F"/>
<path d="M10.1215 94.2158L10.102 79.5063L22.83 72.1323L35.5775 79.4678L35.5975 94.1773L22.869 101.551L10.1215 94.2158Z" fill="#FFD552"/>
<path d="M35.5895 79.4971L22.8395 86.9066L22.835 101.571L35.563 94.1971L35.5895 79.4971Z" fill="#F68F6F"/>
<path d="M38.955 77.512L22.8245 68.2295L6.7195 77.56L6.744 96.172L22.8745 105.454L38.9795 96.124L38.955 77.512ZM22.827 70.031L36.643 77.9815L22.826 85.986L9.056 78.009L22.827 70.031ZM8.2815 79.363L22.0935 87.3645V103.204L8.303 95.269L8.2815 79.363ZM23.6535 103.2V87.3095L37.397 79.3475L37.4185 95.226L23.6535 103.2Z" fill="#4A555F"/>
<path d="M23.6535 79.5725H22.0935V78.0125H23.6535V79.5725ZM23.6535 76.4525H22.0935V74.8925H23.6535V76.4525ZM23.6535 73.3325H22.0935V71.7725H23.6535V73.3325ZM35.8035 94.638L34.442 93.8765L35.2035 92.515L36.565 93.2765L35.8035 94.638ZM33.0805 93.115L31.719 92.3535L32.4805 90.992L33.842 91.7535L33.0805 93.115Z" fill="#4A555F"/>
</svg>
