<svg width="115" height="115" viewBox="0 0 115 115" fill="none" xmlns="http://www.w3.org/2000/svg">
<g clip-path="url(#clip0_232_1688)">
<path d="M106.033 4.15381H8.95516C6.41145 4.15381 4.34595 6.22493 4.34595 8.76886V85.6601C4.34595 88.1979 6.41123 90.2693 8.95516 90.2693H106.033C108.577 90.2693 110.642 88.1979 110.642 85.6601V8.76886C110.642 6.22516 108.577 4.15381 106.033 4.15381ZM108.279 79.3472H97.5851L99.5046 81.2667C99.9772 81.7451 99.9772 82.5153 99.5046 82.9879L97.5501 84.9424L95.5955 86.8912C95.4835 87.0048 95.35 87.0951 95.2027 87.1567C95.0555 87.2183 94.8975 87.25 94.7379 87.25C94.5782 87.25 94.4202 87.2183 94.273 87.1567C94.1258 87.0951 93.9922 87.0048 93.8802 86.8912L88.4835 81.4945C87.8827 80.8936 86.8674 81.0803 86.5173 81.8563L85.1988 84.7735C84.7496 85.7713 83.3143 85.7129 82.9466 84.6859L81.033 79.3476H6.70906V7.52025H108.28V79.3472H108.279Z" fill="#DFDFDF"/>
<path d="M74.7841 107.954H41.2884C41.1442 107.954 41.0023 107.918 40.8753 107.851C40.7482 107.783 40.6399 107.684 40.5599 107.564C40.48 107.444 40.4309 107.307 40.417 107.163C40.4032 107.02 40.4249 106.875 40.4804 106.742L46.1206 93.2112C46.1871 93.0518 46.2993 92.9156 46.4431 92.8198C46.5868 92.724 46.7558 92.6728 46.9285 92.6729H69.1435C69.4968 92.6729 69.8153 92.8853 69.9514 93.2112L75.592 106.742C75.6473 106.875 75.6689 107.02 75.6549 107.163C75.641 107.306 75.5919 107.444 75.512 107.564C75.4321 107.684 75.3238 107.782 75.1969 107.85C75.0699 107.918 74.9282 107.954 74.7841 107.954ZM42.601 106.204H73.4713L68.56 94.4232H47.5118L42.601 106.204Z" fill="#4A555F"/>
<path d="M46.206 103.801L49.1133 96.8262H66.9586L69.8659 103.801H46.206Z" fill="#DFDFDF"/>
<path d="M89.7791 115H26.2932C26.0612 115 25.8386 114.908 25.6745 114.744C25.5104 114.58 25.4182 114.357 25.4182 114.125V107.079C25.4182 106.847 25.5103 106.624 25.6745 106.46C25.8386 106.296 26.0611 106.204 26.2932 106.204H89.7791C90.0111 106.204 90.2337 106.296 90.3978 106.46C90.5619 106.624 90.6541 106.847 90.6541 107.079V114.125C90.6541 114.357 90.5619 114.58 90.3978 114.744C90.2337 114.908 90.0111 115 89.7791 115ZM27.1683 113.25H88.9037V107.954H27.1683V113.25Z" fill="#4A555F"/>
<path d="M4.03558 113.25H112.036V115H4.03558V113.25Z" fill="#4A555F"/>
<path d="M53.8688 84.9186C53.8688 86.0463 54.3168 87.1278 55.1142 87.9253C55.9116 88.7227 56.9931 89.1707 58.1209 89.1707C59.2486 89.1707 60.3301 88.7227 61.1275 87.9253C61.925 87.1278 62.3729 86.0463 62.3729 84.9186C62.3729 83.7909 61.925 82.7093 61.1275 81.9119C60.3301 81.1145 59.2486 80.6665 58.1209 80.6665C56.9931 80.6665 55.9116 81.1145 55.1142 81.9119C54.3168 82.7093 53.8688 83.7909 53.8688 84.9186Z" fill="white"/>
<path d="M58.1209 90.0458C55.2937 90.0458 52.9935 87.7456 52.9935 84.9184C52.9935 82.0912 55.2937 79.791 58.1209 79.791C60.948 79.791 63.2482 82.0912 63.2482 84.9184C63.248 87.7456 60.948 90.0458 58.1209 90.0458ZM58.1209 81.5416C56.2588 81.5416 54.7438 83.0564 54.7438 84.9186C54.7438 86.7806 56.2588 88.2956 58.1209 88.2956C59.9829 88.2956 61.4979 86.7809 61.4979 84.9186C61.4979 83.0564 59.9829 81.5416 58.1209 81.5416Z" fill="#4A555F"/>
<path d="M106.039 94.4235H8.96103C6.33961 94.4235 3.87587 93.2614 2.20141 91.2352C2.02043 91.0178 1.85063 90.7913 1.69267 90.5567C1.53495 90.3224 1.38856 90.0808 1.25401 89.8325C1.11838 89.5853 0.995512 89.3313 0.885872 89.0715C0.774731 88.8076 0.676977 88.5383 0.592982 88.2645C0.463193 87.8485 0.365501 87.4231 0.300765 86.9921C0.230809 86.5517 0.196333 86.1064 0.197669 85.6604V8.76898C0.197669 3.93381 4.12901 0 8.96103 0H106.039C110.871 0 114.802 3.93381 114.802 8.76898V85.6602C114.802 90.4922 110.871 94.4235 106.039 94.4235ZM8.96103 1.75038C5.09415 1.75038 1.94783 4.89896 1.94783 8.7692V85.6604C1.94783 86.031 1.97523 86.3879 2.02981 86.7212C2.08104 87.068 2.15937 87.4102 2.26408 87.7448C2.39643 88.1782 2.57285 88.597 2.79056 88.9945C2.90399 89.2056 3.0237 89.3979 3.14836 89.5852C3.27367 89.7704 3.40808 89.9493 3.55109 90.1211C4.89111 91.7428 6.86363 92.6734 8.96103 92.6734H106.039C109.906 92.6734 113.052 89.5275 113.052 85.6604V8.76898C113.052 4.89896 109.906 1.75016 106.039 1.75016H8.96103V1.75038Z" fill="#4A555F"/>
<path d="M94.7382 88.1251C94.4627 88.1259 94.1898 88.0715 93.9356 87.9653C93.6814 87.859 93.4511 87.7029 93.2581 87.5063L87.8647 82.113C87.8265 82.0738 87.7791 82.0447 87.7268 82.0283C87.6745 82.012 87.6189 82.0089 87.5651 82.0193C87.5103 82.0287 87.4587 82.0516 87.4151 82.086C87.3714 82.1203 87.3369 82.1651 87.3149 82.2161L85.9964 85.1335C85.6454 85.9136 84.8804 86.3965 84.008 86.3631C83.5914 86.348 83.189 86.2082 82.8528 85.9618C82.5166 85.7153 82.2622 85.3736 82.1226 84.9808L74.9812 65.0436C74.8965 64.8151 74.8537 64.5732 74.8547 64.3295C74.8547 63.658 75.188 63.0219 75.7457 62.6279C76.307 62.2317 77.0015 62.1367 77.65 62.3671L97.5888 69.5095C97.9822 69.6483 98.3248 69.9022 98.5721 70.2382C98.8194 70.5742 98.9599 70.9768 98.9755 71.3937C98.9937 71.8104 98.8861 72.2229 98.6669 72.5777C98.4476 72.9325 98.1268 73.2132 97.746 73.3833L94.8299 74.7016C94.779 74.7235 94.7343 74.7578 94.7 74.8013C94.6657 74.8448 94.6428 74.8963 94.6333 74.9509C94.6208 75.0176 94.6167 75.1463 94.7297 75.2602L100.124 80.6483C100.125 80.6497 100.127 80.6508 100.128 80.6524C100.936 81.4708 100.934 82.7963 100.124 83.6069L96.2139 87.5113C96.0211 87.7065 95.7913 87.8613 95.5379 87.9667C95.2845 88.0721 95.0127 88.126 94.7382 88.1251ZM87.6253 80.2636C88.174 80.2636 88.7068 80.4803 89.1021 80.8754L94.4988 86.2723C94.5878 86.3619 94.6864 86.3747 94.738 86.3747C94.7818 86.3747 94.8252 86.366 94.8656 86.349C94.9061 86.332 94.9427 86.3072 94.9734 86.2759L98.8859 82.369C99.0175 82.2372 99.0164 82.0193 98.883 81.883L93.4896 76.4953C93.2499 76.2545 93.0721 75.9592 92.9715 75.6347C92.8709 75.3102 92.8504 74.9661 92.9119 74.6319C92.9737 74.2999 93.1148 73.9878 93.3232 73.7221C93.5317 73.4564 93.8013 73.2451 94.1091 73.1062L97.0257 71.7877C97.2092 71.7053 97.2303 71.5498 97.2267 71.4645C97.2233 71.3789 97.1892 71.2251 96.9998 71.1577L77.0615 64.0158C77.0109 63.9967 76.9564 63.9905 76.9029 63.9978C76.8494 64.0051 76.7985 64.0256 76.7549 64.0575C76.6608 64.124 76.6044 64.2258 76.6044 64.3295C76.6044 64.3709 76.61 64.4048 76.6237 64.4398L83.7697 84.3903C83.8364 84.5772 83.9907 84.6109 84.0763 84.614C84.1594 84.6183 84.3179 84.5963 84.3999 84.4141L85.7188 81.4958C85.8845 81.1288 86.1524 80.8174 86.4905 80.5988C86.8287 80.3803 87.2227 80.2639 87.6253 80.2636Z" fill="#4A555F"/>
<path d="M90.5464 79.4315C90.1642 79.0469 89.7096 78.7419 89.2087 78.5342C88.7079 78.3265 88.1709 78.2201 87.6287 78.2213C86.987 78.2221 86.3543 78.3718 85.7803 78.6587C85.2063 78.9456 84.7067 79.3617 84.3209 79.8744L79.7622 67.1523L92.4848 71.7097C91.6571 72.3323 91.0931 73.2427 90.9042 74.261C90.7829 74.9183 90.8224 75.5953 91.0194 76.234C91.2164 76.8727 91.565 77.4543 92.0355 77.9291L96.2398 82.1277L94.7398 83.6254L90.5464 79.4315Z" fill="#F58E6F"/>
<path d="M105.006 76.9435H94.3C94.185 76.9435 94.0711 76.9208 93.9648 76.8767C93.8585 76.8326 93.762 76.768 93.6808 76.6865L93.4887 76.494C93.2493 76.2533 93.0718 75.9582 92.9714 75.6339C92.871 75.3097 92.8507 74.9659 92.9122 74.632C92.9739 74.3 93.115 73.9878 93.3234 73.7222C93.5319 73.4565 93.8015 73.2452 94.1093 73.1062L97.0259 71.7878C97.2094 71.7054 97.2305 71.5499 97.2269 71.4646C97.2235 71.379 97.1894 71.2251 97 71.1578L77.0617 64.0159C76.8874 63.9534 76.7648 64.0401 76.7073 64.0978C76.6502 64.1549 76.5649 64.2766 76.628 64.452L80.6835 75.7733C80.731 75.9053 80.7459 76.0469 80.7271 76.186C80.7083 76.325 80.6562 76.4575 80.5753 76.5722C80.4944 76.6869 80.3873 76.7805 80.2627 76.8451C80.1382 76.9097 80 76.9434 79.8597 76.9435H9.99355C9.76148 76.9434 9.53894 76.8512 9.37484 76.6871C9.21074 76.523 9.11853 76.3005 9.11847 76.0684V10.7994C9.11847 10.6845 9.1411 10.5707 9.18508 10.4645C9.22906 10.3583 9.29352 10.2619 9.37477 10.1806C9.45603 10.0994 9.5525 10.0349 9.65867 9.99093C9.76484 9.94695 9.87863 9.92432 9.99355 9.92432H105.006C105.239 9.92438 105.461 10.0166 105.625 10.1807C105.789 10.3448 105.882 10.5673 105.882 10.7994V76.0684C105.882 76.3005 105.789 76.5231 105.625 76.6872C105.461 76.8513 105.239 76.9435 105.006 76.9435ZM94.6767 75.1931H104.131V11.6745H10.8686V75.1931H78.6169L74.9818 65.0448C74.7049 64.2789 74.8906 63.4415 75.4679 62.8625C76.0451 62.2825 76.8831 62.0925 77.6517 62.3679L97.589 69.5093C97.9824 69.6482 98.325 69.9021 98.5723 70.2381C98.8196 70.5741 98.9602 70.9767 98.9757 71.3936C98.9939 71.8103 98.8864 72.2228 98.6671 72.5776C98.4479 72.9324 98.127 73.2131 97.7462 73.3832L94.8301 74.7014C94.7792 74.7234 94.7346 74.7576 94.7002 74.8012C94.6659 74.8447 94.643 74.8961 94.6336 74.9507C94.6232 75.0046 94.6185 75.099 94.6767 75.1931Z" fill="#4A555F"/>
<path d="M105.007 76.9415H94.3013C94.0695 76.9415 93.8472 76.8495 93.6832 76.6857L93.4907 76.4934C93.251 76.2525 93.0733 75.9571 92.9728 75.6325C92.8723 75.3079 92.8519 74.9638 92.9135 74.6296C92.9752 74.2977 93.1163 73.9855 93.3247 73.7199C93.5332 73.4543 93.8028 73.2431 94.1106 73.1043L97.0267 71.7861C97.2102 71.7034 97.2318 71.5482 97.2284 71.4629C97.2251 71.3771 97.1909 71.2234 97.0011 71.156L77.0635 64.0137C76.8874 63.951 76.7665 64.0388 76.709 64.0959C76.652 64.1529 76.5659 64.2749 76.6297 64.4503L80.6853 75.7713C80.7328 75.9034 80.7477 76.0449 80.7289 76.184C80.71 76.3231 80.6579 76.4556 80.577 76.5702C80.4962 76.6849 80.389 76.7785 80.2645 76.8431C80.1399 76.9077 80.0017 76.9415 79.8614 76.9415H9.99465C9.76258 76.9415 9.54003 76.8492 9.37594 76.6852C9.21184 76.521 9.11963 76.2985 9.11957 76.0664V10.7974C9.11957 10.5654 9.21176 10.3428 9.37587 10.1787C9.53998 10.0146 9.76256 9.92236 9.99465 9.92236H105.007C105.239 9.92242 105.462 10.0146 105.626 10.1787C105.79 10.3428 105.882 10.5654 105.882 10.7974V76.0664C105.882 76.2985 105.79 76.521 105.626 76.6852C105.462 76.8492 105.239 76.9415 105.007 76.9415ZM94.6778 75.1911H104.132V11.6725H10.8697V75.1911H78.618L74.9822 65.0428C74.7053 64.2767 74.8917 63.4396 75.4687 62.8603C76.0464 62.2804 76.8835 62.0906 77.6526 62.3657L97.5885 69.5072C97.9821 69.6459 98.3249 69.8997 98.5724 70.2357C98.8199 70.5717 98.9606 70.9744 98.9763 71.3914C98.9945 71.8081 98.887 72.2206 98.6677 72.5754C98.4485 72.9302 98.1276 73.2109 97.7468 73.381L94.8303 74.6992C94.7795 74.7213 94.735 74.7556 94.7008 74.7991C94.6665 74.8427 94.6437 74.894 94.6342 74.9486C94.6243 75.0027 94.6198 75.097 94.6778 75.1911Z" fill="#4A555F"/>
<path d="M19.6623 71.5149H17.9119V22.5123C17.9119 19.1506 20.6497 16.4155 24.0146 16.4155H90.9872C94.3523 16.4155 97.0898 19.1506 97.0898 22.5123V65.5351H95.3394V22.5123C95.3394 20.1157 93.3869 18.1659 90.987 18.1659H24.0148C21.6148 18.1659 19.6623 20.1157 19.6623 22.5123V71.5149Z" fill="#4A555F"/>
<path d="M21.7045 31.4756V71.5147H74.7123L72.7548 65.6133C71.6832 62.3827 74.7608 59.3157 77.9875 60.3983L93.2978 65.5349V31.4756H21.7045Z" fill="#FFD452"/>
<path d="M18.7866 27.3721H96.2395V29.1225H18.7866V27.3721Z" fill="#4A555F"/>
<path d="M24.7679 22.8152C24.7679 23.116 24.8271 23.4138 24.9422 23.6917C25.0573 23.9696 25.226 24.2221 25.4387 24.4348C25.6514 24.6474 25.9039 24.8161 26.1817 24.9312C26.4596 25.0463 26.7575 25.1056 27.0582 25.1056C27.359 25.1056 27.6568 25.0463 27.9347 24.9312C28.2126 24.8161 28.4651 24.6474 28.6777 24.4348C28.8904 24.2221 29.0591 23.9696 29.1742 23.6917C29.2893 23.4138 29.3486 23.116 29.3486 22.8152C29.3486 22.2078 29.1073 21.6253 28.6777 21.1957C28.2482 20.7662 27.6657 20.5249 27.0582 20.5249C26.4508 20.5249 25.8682 20.7662 25.4387 21.1957C25.0092 21.6253 24.7679 22.2078 24.7679 22.8152Z" fill="#F58E6F"/>
<path d="M32.2448 22.8155C32.2448 23.1163 32.304 23.4141 32.4191 23.692C32.5342 23.9699 32.7029 24.2224 32.9156 24.4351C33.1283 24.6478 33.3809 24.8166 33.6588 24.9317C33.9367 25.0468 34.2345 25.106 34.5353 25.106C34.8361 25.106 35.134 25.0468 35.4119 24.9317C35.6898 24.8166 35.9423 24.6478 36.155 24.4351C36.3677 24.2224 36.5364 23.9699 36.6515 23.692C36.7666 23.4141 36.8259 23.1163 36.8259 22.8155C36.8259 22.208 36.5846 21.6254 36.155 21.1958C35.7254 20.7662 35.1428 20.5249 34.5353 20.5249C33.9278 20.5249 33.3452 20.7662 32.9156 21.1958C32.4861 21.6254 32.2448 22.208 32.2448 22.8155Z" fill="#F58E6F"/>
<path d="M39.7219 22.8152C39.7219 23.4227 39.9632 24.0052 40.3927 24.4348C40.8223 24.8643 41.4048 25.1056 42.0123 25.1056C42.6197 25.1056 43.2023 24.8643 43.6318 24.4348C44.0613 24.0052 44.3026 23.4227 44.3026 22.8152C44.3026 22.2078 44.0613 21.6253 43.6318 21.1957C43.2023 20.7662 42.6197 20.5249 42.0123 20.5249C41.4048 20.5249 40.8223 20.7662 40.3927 21.1957C39.9632 21.6253 39.7219 22.2078 39.7219 22.8152Z" fill="#F58E6F"/>
<path d="M36.9581 53.6097H36.9484C36.7862 53.6079 36.6277 53.5611 36.4906 53.4744C36.3534 53.3878 36.2431 53.2647 36.172 53.1189L32.0856 44.76L33.6581 43.9914L36.9799 50.7861L39.0885 46.7036C39.1623 46.5609 39.2738 46.4413 39.411 46.3577C39.5482 46.2742 39.7058 46.2301 39.8664 46.2301C40.027 46.2301 40.1845 46.2743 40.3217 46.3579C40.4589 46.4414 40.5704 46.5611 40.6441 46.7038L42.7523 50.7861L46.0741 43.9917L47.6466 44.7603L43.5603 53.1191C43.4891 53.2649 43.3787 53.388 43.2416 53.4746C43.1045 53.5613 42.946 53.6081 42.7838 53.6099C42.4401 53.6011 42.1479 53.4304 41.9963 53.1362L39.8665 49.0124L37.7361 53.1364C37.6623 53.279 37.5506 53.3986 37.4134 53.482C37.2762 53.5655 37.1187 53.6096 36.9581 53.6097ZM60.9372 53.6097C60.7765 53.6096 60.619 53.5654 60.4818 53.4819C60.3446 53.3983 60.2331 53.2787 60.1593 53.136L58.0296 49.0121L55.8998 53.136C55.7478 53.4302 55.4441 53.6031 55.1124 53.6097C54.9501 53.6078 54.7916 53.5609 54.6545 53.4743C54.5174 53.3876 54.407 53.2646 54.3357 53.1189L50.2487 44.76L51.8212 43.9912L55.1434 50.7859L57.2515 46.7036C57.3253 46.5609 57.4368 46.4412 57.574 46.3577C57.7112 46.2742 57.8687 46.23 58.0294 46.23C58.19 46.23 58.3475 46.2742 58.4847 46.3577C58.6219 46.4412 58.7335 46.5609 58.8072 46.7036L60.9154 50.7859L64.2371 43.9914L65.8096 44.76L61.7233 53.1189C61.6521 53.2647 61.5417 53.3878 61.4046 53.4745C61.2674 53.5611 61.1088 53.6079 60.9466 53.6097H60.9372ZM79.1004 53.6097C78.9398 53.6096 78.7823 53.5654 78.6451 53.4819C78.5079 53.3983 78.3963 53.2787 78.3226 53.136L76.1928 49.0121L74.0631 53.136C73.911 53.4302 73.6193 53.6031 73.2756 53.6097C73.1134 53.6079 72.9549 53.5611 72.8178 53.4744C72.6806 53.3878 72.5703 53.2647 72.4991 53.1189L68.4128 44.76L69.9853 43.9914L73.3071 50.7859L75.4152 46.7036C75.489 46.5609 75.6006 46.4412 75.7377 46.3577C75.8749 46.2742 76.0325 46.23 76.1931 46.23C76.3537 46.23 76.5112 46.2742 76.6484 46.3577C76.7856 46.4412 76.8972 46.5609 76.9709 46.7036L79.0791 50.7859L82.4008 43.9914L83.9733 44.76L79.887 53.1189C79.8158 53.2646 79.7055 53.3877 79.5684 53.4744C79.4313 53.5611 79.2727 53.6079 79.1105 53.6097H79.1004ZM48.1636 51.5754H49.914V53.2563H48.1636V51.5754ZM66.4933 51.5754H68.2437V53.2563H66.4933V51.5754Z" fill="#4A555F"/>
</g>
<defs>
<clipPath id="clip0_232_1688">
<rect width="115" height="115" fill="white"/>
</clipPath>
</defs>
</svg>
