<svg width="71" height="101" viewBox="0 0 71 101" fill="none" xmlns="http://www.w3.org/2000/svg">
<g id="Group 53">
<g id="Ellipse 13" filter="url(#filter0_i_551_78)">
<ellipse cx="35" cy="88.583" rx="35" ry="11.5" fill="#FEDCDC"/>
</g>
<path id="Vector" d="M39.2083 42.3542C36.2523 42.3542 33.4173 41.1799 31.327 39.0896C29.2368 36.9994 28.0625 34.1644 28.0625 31.2083C28.0625 28.2523 29.2368 25.4173 31.327 23.327C33.4173 21.2368 36.2523 20.0625 39.2083 20.0625C42.1644 20.0625 44.9994 21.2368 47.0896 23.327C49.1799 25.4173 50.3542 28.2523 50.3542 31.2083C50.3542 32.672 50.0659 34.1214 49.5057 35.4737C48.9456 36.8259 48.1246 38.0546 47.0896 39.0896C46.0546 40.1246 44.8259 40.9456 43.4737 41.5057C42.1214 42.0659 40.672 42.3542 39.2083 42.3542ZM39.2083 0C30.9314 0 22.9934 3.28801 17.1407 9.14071C11.288 14.9934 8 22.9314 8 31.2083C8 54.6146 39.2083 89.1667 39.2083 89.1667C39.2083 89.1667 70.4167 54.6146 70.4167 31.2083C70.4167 22.9314 67.1287 14.9934 61.276 9.14071C55.4233 3.28801 47.4853 0 39.2083 0Z" fill="#FF4444"/>
</g>
<defs>
<filter id="filter0_i_551_78" x="0" y="77.083" width="70" height="27" filterUnits="userSpaceOnUse" color-interpolation-filters="sRGB">
<feFlood flood-opacity="0" result="BackgroundImageFix"/>
<feBlend mode="normal" in="SourceGraphic" in2="BackgroundImageFix" result="shape"/>
<feColorMatrix in="SourceAlpha" type="matrix" values="0 0 0 0 0 0 0 0 0 0 0 0 0 0 0 0 0 0 127 0" result="hardAlpha"/>
<feOffset dy="4"/>
<feGaussianBlur stdDeviation="2"/>
<feComposite in2="hardAlpha" operator="arithmetic" k2="-1" k3="1"/>
<feColorMatrix type="matrix" values="0 0 0 0 0 0 0 0 0 0 0 0 0 0 0 0 0 0 0.52 0"/>
<feBlend mode="normal" in2="shape" result="effect1_innerShadow_551_78"/>
</filter>
</defs>
</svg>
