<svg width="62" height="63" viewBox="0 0 62 63" fill="none" xmlns="http://www.w3.org/2000/svg">
<path d="M22.6845 0.837646H26.8002H27.6517L17.9301 18.8616H27.8646L29.7096 21.9129H16.369L9.34389 34.9697L17.7172 35.0406L18.6397 36.6018L19.5267 38.021H2.13776L2.53167 37.3114L22.6845 0.837646Z" fill="#FFB800" stroke="black" stroke-width="0.612533"/>
<path d="M50.5703 38.3762L49.293 41.2146L48.2995 43.5563L38.0812 26.5258L35.3138 30.8544L32.6882 35.2357L28.3596 35.2357L35.8814 22.9068L28.381 9.921L25.0245 15.8107L23.6762 18.1914L19.2323 18.1914L28.381 1.2638L30.0627 4.17318L50.5703 38.3762Z" fill="#FFB800" stroke="black" stroke-width="0.612533"/>
<path d="M4.69216 43.6271L3.48583 41.4983L1.99566 38.8727L21.2651 39.0856L16.5817 31.4928L17.3623 29.7898L18.3557 27.448L25.8066 38.8727L40.2116 38.8727L38.1537 35.3956L35.9858 31.6347L37.1603 29.7897L38.1537 28.1576L47.3786 43.627L44.2563 43.6271L4.69216 43.6271Z" fill="#FFB800"/>
<path d="M32.4059 24.2548L18.8524 24.2548L25.8066 34.9699L28.8579 29.7898L32.4059 24.2548Z" fill="#FFB800"/>
<path d="M4.69216 43.6271L3.48583 41.4983L1.99566 38.8727L21.2651 39.0856L16.5817 31.4928L17.3623 29.7898L18.3557 27.448L25.8066 38.8727L40.2116 38.8727L38.1537 35.3956L35.9858 31.6347L37.1603 29.7897L38.1537 28.1576L47.3786 43.627L44.2563 43.6271L4.69216 43.6271Z" stroke="black" stroke-width="0.612533"/>
<path d="M32.4059 24.2548L18.8524 24.2548L25.8066 34.9699L28.8579 29.7898L32.4059 24.2548Z" stroke="black" stroke-width="0.612533"/>
</svg>
