<svg width="189" height="47" viewBox="0 0 189 47" fill="none" xmlns="http://www.w3.org/2000/svg">
<path d="M55.3054 29.8702H67.556" stroke="#FFB800" stroke-width="3.06267" stroke-linecap="round"/>
<path d="M1.70871 2.91882L1.70871 45.1652" stroke="#FFB800" stroke-width="3.06267" stroke-linecap="round"/>
<path d="M32.3354 2.91882V45.1652" stroke="#FFB800" stroke-width="3.06267" stroke-linecap="round"/>
<path d="M6.30273 23.745L28.3539 24.0513" stroke="#FFB800" stroke-width="3.06267" stroke-linecap="round"/>
<path d="M44.8923 45.1836L61.1557 3.49011C61.3599 2.96673 62.1021 2.97133 62.2997 3.49719L77.9691 45.1836" stroke="#FFB800" stroke-width="3.06267" stroke-linecap="round"/>
<path d="M135.393 22.5199L154.962 43.6523" stroke="#FFB800" stroke-width="3.06267" stroke-linecap="round"/>
<path d="M135.393 22.5199L154.962 3.53137" stroke="#FFB800" stroke-width="3.06267" stroke-linecap="round"/>
<path d="M130.156 44.2451V3.53137H104.89C93.743 3.53137 84.707 12.6006 84.707 23.7472V23.7472C84.707 34.4819 93.1365 43.3566 103.859 43.8704V43.8704C108.803 44.1073 113.586 42.0865 116.863 38.377L117.673 37.4595" stroke="#FFB800" stroke-width="3.06267" stroke-linecap="round"/>
<path d="M185.979 7.49305L185.839 7.3192C183.281 4.14904 179.426 2.30627 175.352 2.30627H173.38C167.746 2.30627 163.179 6.87326 163.179 12.5069V12.5069C163.179 18.1406 167.746 22.7076 173.38 22.7076H175.762C181.969 22.7076 187 27.739 187 33.9456V33.9456C187 40.1522 181.969 45.1836 175.762 45.1836H175.43H173.912C169.894 45.1836 166.194 42.9983 164.255 39.4797L163.179 37.5269" stroke="#FFB800" stroke-width="3.06267" stroke-linecap="round"/>
</svg>
