<svg width="349" height="66" viewBox="0 0 349 66" fill="none" xmlns="http://www.w3.org/2000/svg">
<path d="M22.6845 3.83765H26.8002H27.6517L17.9301 21.8616H27.8646L29.7096 24.9129H16.369L9.34389 37.9697L17.7172 38.0406L18.6397 39.6018L19.5267 41.021H2.13776L2.53167 40.3114L22.6845 3.83765Z" fill="#FFB800" stroke="black" stroke-width="0.612533"/>
<path d="M50.5703 41.3762L49.293 44.2146L48.2995 46.5563L38.0812 29.5258L35.3138 33.8544L32.6882 38.2357L28.3596 38.2357L35.8814 25.9068L28.381 12.921L25.0245 18.8107L23.6762 21.1914L19.2323 21.1914L28.381 4.2638L30.0627 7.17318L50.5703 41.3762Z" fill="#FFB800" stroke="black" stroke-width="0.612533"/>
<path d="M4.69216 46.6271L3.48583 44.4983L1.99566 41.8727L21.2651 42.0856L16.5817 34.4928L17.3623 32.7898L18.3557 30.448L25.8066 41.8727L40.2116 41.8727L38.1537 38.3956L35.9858 34.6347L37.1603 32.7897L38.1537 31.1576L47.3786 46.627L44.2563 46.6271L4.69216 46.6271Z" fill="#FFB800"/>
<path d="M32.4059 27.2548L18.8524 27.2548L25.8066 37.9699L28.8579 32.7898L32.4059 27.2548Z" fill="#FFB800"/>
<path d="M4.69216 46.6271L3.48583 44.4983L1.99566 41.8727L21.2651 42.0856L16.5817 34.4928L17.3623 32.7898L18.3557 30.448L25.8066 41.8727L40.2116 41.8727L38.1537 38.3956L35.9858 34.6347L37.1603 32.7897L38.1537 31.1576L47.3786 46.627L44.2563 46.6271L4.69216 46.6271Z" stroke="black" stroke-width="0.612533"/>
<path d="M32.4059 27.2548L18.8524 27.2548L25.8066 37.9699L28.8579 32.7898L32.4059 27.2548Z" stroke="black" stroke-width="0.612533"/>
<path d="M128.019 4.45007H77.7748C66.6203 4.45007 57.5778 13.4926 57.5778 24.6471V25.3852C57.5778 35.7391 65.7002 44.2724 76.0415 44.7831V44.7831C80.9047 45.0233 85.6055 43.0002 88.7744 39.3032L89.5672 38.3782" stroke="white" stroke-width="3.06267" stroke-linecap="round"/>
<path d="M102.166 23.5989L128.016 23.5989" stroke="white" stroke-width="3.06267" stroke-linecap="round"/>
<path d="M102.166 43.6327L128.016 43.6327" stroke="white" stroke-width="3.06267" stroke-linecap="round"/>
<path d="M215.305 29.8702H227.556" stroke="#FFB800" stroke-width="3.06267" stroke-linecap="round"/>
<path d="M161.709 2.91882V45.1652" stroke="#FFB800" stroke-width="3.06267" stroke-linecap="round"/>
<path d="M192.335 2.91882V45.1652" stroke="#FFB800" stroke-width="3.06267" stroke-linecap="round"/>
<path d="M166.303 23.745L188.354 24.0513" stroke="#FFB800" stroke-width="3.06267" stroke-linecap="round"/>
<path d="M204.892 45.1836L221.156 3.49011C221.36 2.96673 222.102 2.97133 222.3 3.49719L237.969 45.1836" stroke="#FFB800" stroke-width="3.06267" stroke-linecap="round"/>
<path d="M295.393 22.5199L314.962 43.6523" stroke="#FFB800" stroke-width="3.06267" stroke-linecap="round"/>
<path d="M295.393 22.5199L314.962 3.53137" stroke="#FFB800" stroke-width="3.06267" stroke-linecap="round"/>
<path d="M290.156 44.2451V3.53137H264.89C253.743 3.53137 244.707 12.6006 244.707 23.7472V23.7472C244.707 34.4819 253.136 43.3566 263.859 43.8704V43.8704C268.803 44.1073 273.586 42.0865 276.863 38.377L277.673 37.4595" stroke="#FFB800" stroke-width="3.06267" stroke-linecap="round"/>
<path d="M345.979 7.49305L345.839 7.3192C343.281 4.14904 339.426 2.30627 335.352 2.30627H333.38C327.746 2.30627 323.179 6.87326 323.179 12.5069V12.5069C323.179 18.1406 327.746 22.7076 333.38 22.7076H335.762C341.969 22.7076 347 27.739 347 33.9456V33.9456C347 40.1522 341.969 45.1836 335.762 45.1836H335.43H333.912C329.894 45.1836 326.194 42.9983 324.255 39.4797L323.179 37.5269" stroke="#FFB800" stroke-width="3.06267" stroke-linecap="round"/>
</svg>
