<svg width="195" height="195" viewBox="0 0 195 195" fill="none" xmlns="http://www.w3.org/2000/svg">
<path fill-rule="evenodd" clip-rule="evenodd" d="M97.5 189.937C148.581 189.937 189.991 148.527 189.991 97.4458C189.991 46.3645 148.581 4.95487 97.5 4.95487C46.4186 4.95487 5.00901 46.3645 5.00901 97.4458C5.00901 148.527 46.4186 189.937 97.5 189.937ZM97.5 194.892C151.318 194.892 194.946 151.264 194.946 97.4458C194.946 43.628 151.318 0 97.5 0C43.6821 0 0.0541382 43.628 0.0541382 97.4458C0.0541382 151.264 43.6821 194.892 97.5 194.892Z" fill="url(#paint0_linear_232_1778)"/>
<path d="M124.752 97.0329C124.752 112.312 112.366 124.698 97.087 124.698C81.8082 124.698 69.4223 112.312 69.4223 97.0329C69.4223 81.7541 81.8082 69.3682 97.087 69.3682C112.366 69.3682 124.752 81.7541 124.752 97.0329Z" fill="white"/>
<defs>
<linearGradient id="paint0_linear_232_1778" x1="12.4413" y1="143.278" x2="173.062" y2="35.5099" gradientUnits="userSpaceOnUse">
<stop stop-color="white"/>
<stop offset="0.206827" stop-color="white" stop-opacity="0"/>
<stop offset="0.5449" stop-color="white" stop-opacity="0"/>
<stop offset="0.754104" stop-color="white" stop-opacity="0"/>
<stop offset="1" stop-color="white"/>
</linearGradient>
</defs>
</svg>
